<svg
  xmlns="http://www.w3.org/2000/svg"
  viewBox="10 12 116 142"
  fill="none"
>
  <defs>
    <linearGradient
      id="sqlite-bg"
      x1="-15.614694"
      y1="-9.1082983"
      x2="-6.7410073"
      y2="-9.1082983"
      gradientUnits="userSpaceOnUse"
      gradientTransform="matrix(-5.025e-7,11.486337,-11.486337,-5.025e-7,-30.839638,202.18698)"
      spreadMethod="pad"
    >
      <stop offset="0" stop-color="#97d9f6" />
      <stop offset="0.92024499" stop-color="#0f80cc" />
      <stop offset="1" stop-color="#0f80cc" />
    </linearGradient>
  </defs>
  <path
    d="m 121.6315,17.03623 -99.506,0 C 15.4565,17.03623 10,22.49373 10,29.16248 l 0,109.7365 c 0,6.66837 5.4565,12.125 12.1255,12.125 l 65.53725,0 C 86.918884,118.41477 98.054499,55.130402 121.6315,17.03623 z"
    fill="#0f80cc"
  />
  <path
    d="m 118.0165,20.57373 -95.891,0 c -4.735375,0 -8.588875,3.8525 -8.588875,8.58875 l 0,101.73013 c 21.71725,-8.335 54.31221,-15.5269 76.849585,-15.20027 4.52893,-23.680901 17.83941,-70.090424 27.63029,-95.11861 z"
    fill="url(#sqlite-bg)"
  />
  <path
    d="m 144.8415,13.44498 c -6.815,-6.0775 -15.06625,-3.63625 -23.21,3.59125 -1.20875,1.07375 -2.415,2.265 -3.615,3.5375 -13.93125,14.77875 -26.8625,42.15375 -30.88,63.06 1.565,3.17375 2.7875,7.22375 3.5925,10.3175 0.20625,0.79375 0.3925,1.53875 0.54125,2.1725 0.35375,1.499875 0.54375,2.4725 0.54375,2.4725 0,0 -0.125,-0.472625 -0.6375,-1.95875 -0.0975,-0.285 -0.20625,-0.59625 -0.335,-0.9625 -0.055,-0.15125 -0.13125,-0.335 -0.215,-0.53125 -0.90875,-2.1125 -3.4225,-6.57125 -4.52875,-8.5125 -0.94625,2.79125 -1.7825,5.4025 -2.4825,7.765 3.19375,5.8435 5.14,15.85775 5.14,15.85775 0,0 -0.16875,-0.649 -0.97125,-2.91412 -0.7125,-2.00338 -4.26125,-8.22113 -5.101875,-9.674755 -1.438,5.308505 -2.009375,8.892505 -1.494125,9.765125 1.000375,1.69088 1.953125,4.60838 2.78975,7.83488 1.89,7.26862 3.20375,16.11725 3.20375,16.11725 0,0 0.0425,0.58637 0.11375,1.48875 -0.2625,6.104 -0.105,12.43262 0.3675,18.15287 0.62625,7.57225 1.805,14.07713 3.3075,17.5585 l 1.02,-0.55612 c -2.20625,-6.85888 -3.1025,-15.84763 -2.71,-26.21388 0.59375,-15.84512 4.24,-34.95362 10.9775,-54.87 11.3825,-30.065 27.175,-54.1875 41.62875,-65.7075 -13.17375,11.8975 -31.00375,50.40875 -36.34125,64.67 -5.97625,15.97 -10.21125,30.95638 -12.76375,45.31475 4.40375,-13.46087 18.6425,-19.247 18.6425,-19.247 0,0 6.98375,-8.61287 15.145,-20.91775 -4.88875,1.115 -12.91625,3.02375 -15.605,4.15375 -3.96625,1.66375 -5.035,2.23125 -5.035,2.23125 0,0 12.8475,-7.82375 23.87,-11.36625 15.15875,-23.875 31.67375,-57.7925 15.0425,-72.62875"
    fill="#003b57"
  />
</svg>
